<svg xmlns="http://www.w3.org/2000/svg" version="1.1" xmlns:xlink="http://www.w3.org/1999/xlink" xmlns:svgjs="http://svgjs.dev/svgjs" width="2000" height="939" viewBox="0 0 2000 939"><g transform="matrix(1,0,0,1,-1.2112696095522324,0.08375893759705377)"><svg viewBox="0 0 396 186" data-background-color="#ffffff" preserveAspectRatio="xMidYMid meet" height="939" width="2000" xmlns="http://www.w3.org/2000/svg" xmlns:xlink="http://www.w3.org/1999/xlink"><g id="tight-bounds" transform="matrix(1,0,0,1,0.24008861730862918,-0.016591227255645435)"><svg viewBox="0 0 395.52 186.0331824545113" height="186.0331824545113" width="395.52"><g><svg viewBox="0 0 395.52 186.0331824545113" height="186.0331824545113" width="395.52"><g><svg viewBox="0 0 395.52 186.0331824545113" height="186.0331824545113" width="395.52"><g id="textblocktransform"><svg viewBox="0 0 395.52 186.0331824545113" height="186.0331824545113" width="395.52" id="textblock"><g><svg viewBox="0 0 395.52 140.0308387711014" height="140.0308387711014" width="395.52"><path d="M394.594 30.034C392.735 15.499 387.435 11.458 387.435 11.458 371.165-3.513 350.86-0.286 332.619 1.865 300.414 1.952 268.339 5.15 236.208 6.865 168.767 7.127 100.749 2.824 33.643 13.435 27.339 16.691-6.54 14.074 1.121 31.894 3.129 39.307 10.456 47.534 10.232 54.337 11.236 55.529 12.631 52.796 13.226 54.511 15.309 59.133 18.711 56.953 21.501 59.686 17.614 66.982 20.403 73.058 23.062 79.424 18.377 81.081 12.371 80.296 9.675 85.791 9.396 89.773 7.89 89.018 6.235 88.843 5.026 88.727 2.59 89.163 2.999 90.413 4.394 94.686-1.594 97.157 2.162 101.343-0.422 105.878 3.948 109.803 3.353 114.716 3.278 115.704 3.687 116.547 4.338 116.78 7.22 118.03 3.018 120.472 3.464 123.117 33.029 141.199 65.104 128.699 95.394 137.013 103.259 131.199 97.346 139.077 100.489 137.856 102.943 136.431 104.728 142.333 107.499 138.989 107.927 138.03 107.276 135.763 108.8 136.199 109.6 136.431 110.307 136.373 110.418 135.036 110.586 133.03 109.117 134.28 108.726 133.234 112.947 127.943 111.906 140.53 115.866 140.007 115.68 138.466 114.528 136.257 116.889 136.548 119.232 134.338 119.306 132.507 121.389 137.478 121.463 138.553 121.835 139.309 122.43 139.832 128.938 134.425 135.409 141.751 142.233 139.309 146.417 136.635 150.433 140.763 154.672 139.745 156.16 138.931 157.666 137.478 159.098 139.92 176.632 140.443 195.319 138.263 211.943 140.007 256.364 136.751 303.836 141.344 350.674 137.042 361.719 135.385 373.192 133.03 383.958 131.14 383.958 131.14 392.679 125.966 392.679 102.71S394.538 82.36 394.817 63.843C395.096 45.325 396.398 44.569 394.538 30.034Z" opacity="1" fill="#35185a" data-fill-palette-color="tertiary"></path><g transform="matrix(1,0,0,1,55.76832,26.068561146666667)"><svg width="283.98335999999995" viewBox="0.65 -35 114.69 35.5" height="87.89371647776805" data-palette-color="#ffffff"><path d="M11.3-31.15L0.65-31.15 0.65-34.6 25.65-34.6 25.65-31.15 15.1-31.15 15.1 0 11.3 0 11.3-31.15ZM33.65 0L29.9 0 29.9-25 33.65-25 33.65 0ZM33.65-30.65L29.9-30.65 29.9-35 33.65-35 33.65-30.65ZM41.5 0L41.5-34.6 54.05-34.6Q59.2-34.6 61.77-32.48 64.34-30.35 64.34-25.8L64.34-25.8Q64.34-22.55 63.22-20.73 62.1-18.9 59.9-17.85L59.9-17.85Q65.4-15.95 65.4-9.7L65.4-9.7Q65.4-4.5 62.65-2.25 59.9 0 54.7 0L54.7 0 41.5 0ZM54.3-15.9L54.3-15.9 45.35-15.9 45.35-3.4 54.55-3.4Q57.95-3.4 59.72-4.83 61.5-6.25 61.5-9.85L61.5-9.85Q61.5-11.75 60.77-13.05 60.05-14.35 58.85-14.9L58.85-14.9Q56.65-15.9 54.3-15.9ZM53.9-31.2L53.9-31.2 45.35-31.2 45.35-19.25 54.25-19.25Q57.45-19.25 58.92-20.78 60.4-22.3 60.4-25.38 60.4-28.45 58.82-29.83 57.25-31.2 53.9-31.2ZM70.54-12.55Q70.54-19.4 72.99-22.45 75.44-25.5 81.27-25.5 87.09-25.5 89.52-22.45 91.94-19.4 91.94-12.55 91.94-5.7 89.64-2.6 87.34 0.5 81.24 0.5 75.14 0.5 72.84-2.6 70.54-5.7 70.54-12.55ZM74.39-12.63Q74.39-7.15 75.72-4.95 77.04-2.75 81.27-2.75 85.49-2.75 86.79-4.93 88.09-7.1 88.09-12.6 88.09-18.1 86.64-20.18 85.19-22.25 81.27-22.25 77.34-22.25 75.87-20.18 74.39-18.1 74.39-12.63ZM102.79-12.5L94.94-25 99.04-25 105.14-15.2 111.24-25 115.34-25 107.39-12.6 115.29 0 111.19 0 105.14-9.75 99.04 0 94.94 0 102.79-12.5Z" opacity="1" transform="matrix(1,0,0,1,0,0)" fill="#ffffff" class="wordmark-text-0" data-fill-palette-color="quaternary" id="text-0"></path></svg></g></svg></g><g transform="matrix(1,0,0,1,75.54432000000001,160.78043578230697)"><svg viewBox="0 0 244.43135999999996 25.252746672204335" height="25.252746672204335" width="244.43135999999996"><g transform="matrix(1,0,0,1,0,0)"><svg width="244.43135999999996" viewBox="0.65 -38.15 481.49 49.75" height="25.252746672204335" data-palette-color="#35185a"><path d="M11.95 0L11.95 0Q11.3 0 10.8-0.33 10.3-0.65 10.3-1.3L10.3-1.3 10.3-33.45 1.9-33.45Q1.3-33.45 0.98-33.93 0.65-34.4 0.65-35L0.65-35Q0.65-35.6 0.98-36.08 1.3-36.55 1.9-36.55L1.9-36.55 21.95-36.55Q22.6-36.55 22.9-36.1 23.2-35.65 23.2-35.05L23.2-35.05Q23.2-34.45 22.9-33.95 22.6-33.45 21.95-33.45L21.95-33.45 13.6-33.45 13.6-1.3Q13.6-0.65 13.08-0.33 12.55 0 11.95 0ZM32.4 0.35L32.4 0.35Q29.25 0.35 26.82-0.85 24.4-2.05 23.02-4.17 21.65-6.3 21.65-9.15L21.65-9.15 21.65-14.75Q21.65-17.25 22.95-19.35 24.25-21.45 26.42-22.7 28.6-23.95 31.2-23.95L31.2-23.95Q33.7-23.95 35.82-22.78 37.95-21.6 39.25-19.55 40.55-17.5 40.55-14.85L40.55-14.85Q40.55-12.9 39.9-12.08 39.25-11.25 38.27-11.05 37.3-10.85 36.2-10.85L36.2-10.85 24.9-10.85 24.9-9Q24.9-6 27.05-4.25 29.2-2.5 32.5-2.5L32.5-2.5Q34.5-2.5 35.6-3 36.7-3.5 37.32-4 37.95-4.5 38.5-4.5L38.5-4.5Q38.9-4.5 39.22-4.23 39.55-3.95 39.72-3.6 39.9-3.25 39.9-2.95L39.9-2.95Q39.9-2.4 39-1.6 38.1-0.8 36.4-0.23 34.7 0.35 32.4 0.35ZM24.9-15.15L24.9-13.25 34.9-13.25Q36.4-13.25 36.9-13.58 37.4-13.9 37.4-14.95L37.4-14.95Q37.4-16.55 36.62-18 35.85-19.45 34.42-20.35 33-21.25 31.15-21.25L31.15-21.25Q29.45-21.25 28.02-20.43 26.6-19.6 25.75-18.23 24.9-16.85 24.9-15.15L24.9-15.15ZM54.3 0.35L54.3 0.35Q51 0.35 48.84-0.9 46.7-2.15 45.65-4.3 44.59-6.45 44.59-9.15L44.59-9.15 44.59-14.5Q44.59-17.15 45.62-19.3 46.65-21.45 48.82-22.7 51-23.95 54.3-23.95L54.3-23.95Q56.4-23.95 57.97-23.43 59.55-22.9 60.42-22.15 61.3-21.4 61.3-20.7L61.3-20.7Q61.3-20.4 61.12-20.03 60.95-19.65 60.62-19.38 60.3-19.1 59.9-19.1L59.9-19.1Q59.45-19.1 58.87-19.58 58.3-20.05 57.3-20.5 56.3-20.95 54.45-20.95L54.45-20.95Q51.2-20.95 49.52-19.23 47.84-17.5 47.84-14.5L47.84-14.5 47.84-9.15Q47.84-6.1 49.52-4.38 51.2-2.65 54.5-2.65L54.5-2.65Q56.4-2.65 57.45-3.13 58.5-3.6 59.07-4.08 59.65-4.55 60.15-4.55L60.15-4.55Q60.59-4.55 60.92-4.3 61.25-4.05 61.42-3.7 61.59-3.35 61.59-2.95L61.59-2.95Q61.59-2.3 60.7-1.53 59.8-0.75 58.17-0.2 56.55 0.35 54.3 0.35ZM67.64 0L67.64 0Q66.99 0 66.52-0.4 66.04-0.8 66.04-1.3L66.04-1.3 66.04-36.95Q66.04-37.5 66.52-37.83 66.99-38.15 67.64-38.15L67.64-38.15Q68.34-38.15 68.82-37.83 69.29-37.5 69.29-36.95L69.29-36.95 69.29-20.15Q70.14-21.6 71.79-22.78 73.44-23.95 75.89-23.95L75.89-23.95Q78.29-23.95 80.32-22.68 82.34-21.4 83.54-19.3 84.74-17.2 84.74-14.6L84.74-14.6 84.74-1.3Q84.74-0.65 84.24-0.33 83.74 0 83.09 0L83.09 0Q82.54 0 82.02-0.33 81.49-0.65 81.49-1.3L81.49-1.3 81.49-14.6Q81.49-16.2 80.64-17.65 79.79-19.1 78.39-20.03 76.99-20.95 75.29-20.95L75.29-20.95Q73.79-20.95 72.42-20.18 71.04-19.4 70.17-18 69.29-16.6 69.29-14.6L69.29-14.6 69.29-1.3Q69.29-0.8 68.82-0.4 68.34 0 67.64 0ZM92.34 0L92.34 0Q91.69 0 91.22-0.4 90.74-0.8 90.74-1.3L90.74-1.3 90.74-22.45Q90.74-23 91.22-23.33 91.69-23.65 92.34-23.65L92.34-23.65Q92.99-23.65 93.44-23.33 93.89-23 93.89-22.45L93.89-22.45 93.89-20.15Q94.69-21.6 96.39-22.78 98.09-23.95 100.59-23.95L100.59-23.95Q102.99-23.95 105.02-22.68 107.04-21.4 108.24-19.3 109.44-17.2 109.44-14.6L109.44-14.6 109.44-1.3Q109.44-0.65 108.94-0.33 108.44 0 107.79 0L107.79 0Q107.24 0 106.72-0.33 106.19-0.65 106.19-1.3L106.19-1.3 106.19-14.6Q106.19-16.2 105.34-17.65 104.49-19.1 103.09-20.03 101.69-20.95 99.99-20.95L99.99-20.95Q98.49-20.95 97.12-20.18 95.74-19.4 94.87-18 93.99-16.6 93.99-14.6L93.99-14.6 93.99-1.3Q93.99-0.8 93.52-0.4 93.04 0 92.34 0ZM124.04 0.35L124.04 0.35Q121.49 0.35 119.34-0.98 117.19-2.3 115.86-4.48 114.54-6.65 114.54-9.15L114.54-9.15 114.54-14.6Q114.54-17.1 115.84-19.23 117.14-21.35 119.29-22.65 121.44-23.95 124.04-23.95L124.04-23.95Q126.59-23.95 128.76-22.68 130.94-21.4 132.24-19.3 133.54-17.2 133.54-14.6L133.54-14.6 133.54-9.15Q133.54-6.7 132.24-4.5 130.94-2.3 128.76-0.98 126.59 0.35 124.04 0.35ZM124.04-2.65L124.04-2.65Q125.79-2.65 127.19-3.58 128.59-4.5 129.44-6 130.29-7.5 130.29-9.15L130.29-9.15 130.29-14.6Q130.29-16.2 129.46-17.65 128.64-19.1 127.21-20.03 125.79-20.95 124.04-20.95L124.04-20.95Q122.29-20.95 120.89-20.03 119.49-19.1 118.64-17.65 117.79-16.2 117.79-14.6L117.79-14.6 117.79-9.15Q117.79-7.5 118.64-6 119.49-4.5 120.91-3.58 122.34-2.65 124.04-2.65ZM140.94 0L140.94 0Q140.29 0 139.81-0.4 139.34-0.8 139.34-1.3L139.34-1.3 139.34-36.95Q139.34-37.5 139.81-37.83 140.29-38.15 140.94-38.15L140.94-38.15Q141.64-38.15 142.11-37.83 142.59-37.5 142.59-36.95L142.59-36.95 142.59-1.3Q142.59-0.8 142.11-0.4 141.64 0 140.94 0ZM157.88 0.35L157.88 0.35Q155.33 0.35 153.18-0.98 151.03-2.3 149.71-4.48 148.38-6.65 148.38-9.15L148.38-9.15 148.38-14.6Q148.38-17.1 149.68-19.23 150.98-21.35 153.13-22.65 155.28-23.95 157.88-23.95L157.88-23.95Q160.43-23.95 162.61-22.68 164.78-21.4 166.08-19.3 167.38-17.2 167.38-14.6L167.38-14.6 167.38-9.15Q167.38-6.7 166.08-4.5 164.78-2.3 162.61-0.98 160.43 0.35 157.88 0.35ZM157.88-2.65L157.88-2.65Q159.63-2.65 161.03-3.58 162.43-4.5 163.28-6 164.13-7.5 164.13-9.15L164.13-9.15 164.13-14.6Q164.13-16.2 163.31-17.65 162.48-19.1 161.06-20.03 159.63-20.95 157.88-20.95L157.88-20.95Q156.13-20.95 154.73-20.03 153.33-19.1 152.48-17.65 151.63-16.2 151.63-14.6L151.63-14.6 151.63-9.15Q151.63-7.5 152.48-6 153.33-4.5 154.76-3.58 156.18-2.65 157.88-2.65ZM181.13 11.6L181.13 11.6Q178.18 11.6 175.91 10.78 173.63 9.95 172.31 8.47 170.98 7 170.98 4.95L170.98 4.95Q170.98 2.75 172.28 1.45 173.58 0.15 175.23-0.5L175.23-0.5Q174.03-0.95 173.26-1.73 172.48-2.5 172.48-3.95L172.48-3.95Q172.48-5.35 173.18-6.18 173.88-7 174.98-7.55L174.98-7.55Q173.63-8.65 172.93-10.28 172.23-11.9 172.23-13.85L172.23-13.85 172.23-15.75Q172.23-18.15 173.28-20 174.33-21.85 176.28-22.9 178.23-23.95 180.83-23.95L180.83-23.95Q182.58-23.95 184.08-23.4 185.58-22.85 186.68-21.85L186.68-21.85Q187.43-23.4 188.38-24.2 189.33-25 190.23-25L190.23-25Q190.98-25 191.36-24.58 191.73-24.15 191.73-23.7L191.73-23.7Q191.73-23.25 191.48-22.98 191.23-22.7 190.88-22.6L190.88-22.6Q190.28-22.5 189.51-22.05 188.73-21.6 188.08-20.45L188.08-20.45Q188.78-19.5 189.13-18.3 189.48-17.1 189.48-15.75L189.48-15.75 189.48-13.85Q189.48-11.5 188.38-9.6 187.28-7.7 185.31-6.63 183.33-5.55 180.78-5.55L180.78-5.55Q178.63-5.55 176.93-6.4L176.93-6.4Q176.38-6.1 175.88-5.68 175.38-5.25 175.38-4.45L175.38-4.45Q175.38-3.35 176.53-2.85 177.68-2.35 179.43-2.15 181.18-1.95 183.16-1.73 185.13-1.5 186.91-0.9 188.68-0.3 189.81 0.95 190.93 2.2 190.93 4.5L190.93 4.5Q190.93 6.85 189.66 8.43 188.38 10 186.18 10.8 183.98 11.6 181.13 11.6ZM181.08 9.15L181.08 9.15Q184.23 9.15 186.01 7.9 187.78 6.65 187.78 4.6L187.78 4.6Q187.78 3 186.81 2.18 185.83 1.35 184.36 1 182.88 0.65 181.31 0.5 179.73 0.35 178.58 0.2L178.58 0.2Q176.83 0.75 175.48 1.8 174.13 2.85 174.13 4.65L174.13 4.65Q174.13 6.65 175.98 7.9 177.83 9.15 181.08 9.15ZM180.88-8L180.88-8Q183.43-8 184.86-9.68 186.28-11.35 186.28-13.85L186.28-13.85 186.28-15.75Q186.28-18.2 184.86-19.85 183.43-21.5 180.83-21.5L180.83-21.5Q178.23-21.5 176.81-19.85 175.38-18.2 175.38-15.75L175.38-15.75 175.38-13.9Q175.38-11.4 176.83-9.7 178.28-8 180.88-8ZM194.58 11.6L194.58 11.6Q193.93 11.6 193.5 11.28 193.08 10.95 193.08 10.15L193.08 10.15Q193.08 9.55 193.3 9.1 193.53 8.65 194.08 8.65L194.08 8.65Q195.28 8.65 196.38 7.9 197.48 7.15 198.43 5.78 199.38 4.4 200.13 2.68 200.88 0.95 201.33-1L201.33-1 193.18-21.95Q193.03-22.2 193.03-22.4L193.03-22.4Q193.03-22.85 193.35-23.2 193.68-23.55 194.15-23.75 194.63-23.95 195.03-23.95L195.03-23.95Q195.43-23.95 195.75-23.78 196.08-23.6 196.18-23.25L196.18-23.25 203.03-4.85 209.48-23.25Q209.63-23.6 209.93-23.78 210.23-23.95 210.58-23.95L210.58-23.95Q210.98-23.95 211.45-23.75 211.93-23.55 212.25-23.2 212.58-22.85 212.58-22.35L212.58-22.35Q212.58-22.1 212.48-21.95L212.48-21.95 204.73-0.95Q203.98 1.05 203.13 3.25 202.28 5.45 201.15 7.33 200.03 9.2 198.43 10.4 196.83 11.6 194.58 11.6ZM228.02 0L228.02 0Q227.37 0 226.9-0.4 226.42-0.8 226.42-1.3L226.42-1.3 226.42-22.45Q226.42-23 226.9-23.33 227.37-23.65 228.02-23.65L228.02-23.65Q228.72-23.65 229.2-23.33 229.67-23 229.67-22.45L229.67-22.45 229.67-1.3Q229.67-0.8 229.2-0.4 228.72 0 228.02 0ZM228.02-30.65L228.02-30.65Q227.12-30.65 226.47-31.28 225.82-31.9 225.82-32.75L225.82-32.75Q225.82-33.6 226.47-34.2 227.12-34.8 228.02-34.8L228.02-34.8Q228.97-34.8 229.6-34.2 230.22-33.6 230.22-32.75L230.22-32.75Q230.22-31.9 229.6-31.28 228.97-30.65 228.02-30.65ZM237.47 0L237.47 0Q236.82 0 236.35-0.4 235.87-0.8 235.87-1.3L235.87-1.3 235.87-22.45Q235.87-23 236.35-23.33 236.82-23.65 237.47-23.65L237.47-23.65Q238.12-23.65 238.57-23.33 239.02-23 239.02-22.45L239.02-22.45 239.02-20.15Q239.82-21.6 241.52-22.78 243.22-23.95 245.72-23.95L245.72-23.95Q248.12-23.95 250.15-22.68 252.17-21.4 253.37-19.3 254.57-17.2 254.57-14.6L254.57-14.6 254.57-1.3Q254.57-0.65 254.07-0.33 253.57 0 252.92 0L252.92 0Q252.37 0 251.85-0.33 251.32-0.65 251.32-1.3L251.32-1.3 251.32-14.6Q251.32-16.2 250.47-17.65 249.62-19.1 248.22-20.03 246.82-20.95 245.12-20.95L245.12-20.95Q243.62-20.95 242.25-20.18 240.87-19.4 240-18 239.12-16.6 239.12-14.6L239.12-14.6 239.12-1.3Q239.12-0.8 238.65-0.4 238.17 0 237.47 0ZM267.02 0.35L267.02 0.35Q264.67 0.35 262.92-0.25 261.17-0.85 260.17-1.68 259.17-2.5 259.17-3.25L259.17-3.25Q259.17-3.6 259.32-3.93 259.47-4.25 259.74-4.5 260.02-4.75 260.32-4.75L260.32-4.75Q260.87-4.75 261.54-4.17 262.22-3.6 263.44-3 264.67-2.4 266.92-2.4L266.92-2.4Q269.77-2.4 270.92-3.48 272.07-4.55 272.07-5.95L272.07-5.95Q272.07-7.6 271.19-8.53 270.32-9.45 268.89-9.98 267.47-10.5 265.89-10.93 264.32-11.35 262.89-12.03 261.47-12.7 260.59-13.9 259.72-15.1 259.72-17.15L259.72-17.15Q259.72-18.75 260.52-20.33 261.32-21.9 263.04-22.93 264.77-23.95 267.62-23.95L267.62-23.95Q269.27-23.95 270.82-23.6 272.37-23.25 273.34-22.68 274.32-22.1 274.32-21.5L274.32-21.5Q274.32-21.25 274.14-20.85 273.97-20.45 273.67-20.13 273.37-19.8 272.97-19.8L272.97-19.8Q272.57-19.8 271.89-20.18 271.22-20.55 270.17-20.88 269.12-21.2 267.67-21.2L267.67-21.2Q265.87-21.2 264.77-20.55 263.67-19.9 263.17-19.03 262.67-18.15 262.67-17.3L262.67-17.3Q262.67-15.85 263.57-15.1 264.47-14.35 265.89-13.88 267.32-13.4 268.89-12.98 270.47-12.55 271.89-11.8 273.32-11.05 274.19-9.7 275.07-8.35 275.07-6.1L275.07-6.1Q275.07-3.15 272.97-1.4 270.87 0.35 267.02 0.35ZM281.52 0L281.52 0Q280.87 0 280.39-0.4 279.92-0.8 279.92-1.3L279.92-1.3 279.92-22.45Q279.92-23 280.39-23.33 280.87-23.65 281.52-23.65L281.52-23.65Q282.22-23.65 282.69-23.33 283.17-23 283.17-22.45L283.17-22.45 283.17-1.3Q283.17-0.8 282.69-0.4 282.22 0 281.52 0ZM281.52-30.65L281.52-30.65Q280.62-30.65 279.97-31.28 279.32-31.9 279.32-32.75L279.32-32.75Q279.32-33.6 279.97-34.2 280.62-34.8 281.52-34.8L281.52-34.8Q282.47-34.8 283.09-34.2 283.72-33.6 283.72-32.75L283.72-32.75Q283.72-31.9 283.09-31.28 282.47-30.65 281.52-30.65ZM297.36 0.35L297.36 0.35Q295.01 0.35 292.96-0.98 290.91-2.3 289.71-4.5 288.51-6.7 288.51-9.15L288.51-9.15 288.51-14.6Q288.51-17.2 289.71-19.3 290.91-21.4 292.96-22.68 295.01-23.95 297.46-23.95L297.46-23.95Q299.91-23.95 301.59-22.78 303.26-21.6 304.06-20.15L304.06-20.15 304.06-36.95Q304.06-37.5 304.56-37.83 305.06-38.15 305.71-38.15L305.71-38.15Q306.46-38.15 306.89-37.83 307.31-37.5 307.31-36.95L307.31-36.95 307.31-1.3Q307.31-0.8 306.89-0.4 306.46 0 305.71 0L305.71 0Q305.11 0 304.66-0.4 304.21-0.8 304.21-1.3L304.21-1.3 304.21-3.5Q303.41-1.95 301.54-0.8 299.66 0.35 297.36 0.35ZM297.91-2.65L297.91-2.65Q299.71-2.65 301.09-3.58 302.46-4.5 303.26-5.68 304.06-6.85 304.06-7.6L304.06-7.6 304.06-14.6Q304.06-16.6 303.16-18 302.26-19.4 300.86-20.18 299.46-20.95 297.96-20.95L297.96-20.95Q296.26-20.95 294.86-20.03 293.46-19.1 292.61-17.65 291.76-16.2 291.76-14.6L291.76-14.6 291.76-9.15Q291.76-7.5 292.61-6 293.46-4.5 294.86-3.58 296.26-2.65 297.91-2.65ZM323.46 0.35L323.46 0.35Q320.31 0.35 317.89-0.85 315.46-2.05 314.09-4.17 312.71-6.3 312.71-9.15L312.71-9.15 312.71-14.75Q312.71-17.25 314.01-19.35 315.31-21.45 317.49-22.7 319.66-23.95 322.26-23.95L322.26-23.95Q324.76-23.95 326.89-22.78 329.01-21.6 330.31-19.55 331.61-17.5 331.61-14.85L331.61-14.85Q331.61-12.9 330.96-12.08 330.31-11.25 329.34-11.05 328.36-10.85 327.26-10.85L327.26-10.85 315.96-10.85 315.96-9Q315.96-6 318.11-4.25 320.26-2.5 323.56-2.5L323.56-2.5Q325.56-2.5 326.66-3 327.76-3.5 328.39-4 329.01-4.5 329.56-4.5L329.56-4.5Q329.96-4.5 330.29-4.23 330.61-3.95 330.79-3.6 330.96-3.25 330.96-2.95L330.96-2.95Q330.96-2.4 330.06-1.6 329.16-0.8 327.46-0.23 325.76 0.35 323.46 0.35ZM315.96-15.15L315.96-13.25 325.96-13.25Q327.46-13.25 327.96-13.58 328.46-13.9 328.46-14.95L328.46-14.95Q328.46-16.55 327.69-18 326.91-19.45 325.49-20.35 324.06-21.25 322.21-21.25L322.21-21.25Q320.51-21.25 319.09-20.43 317.66-19.6 316.81-18.23 315.96-16.85 315.96-15.15L315.96-15.15ZM355.71 0L354.31 0Q350.46 0 348.41-1.75 346.36-3.5 346.36-7.35L346.36-7.35 346.36-33.7Q346.36-34.25 346.88-34.58 347.41-34.9 347.96-34.9L347.96-34.9Q348.61-34.9 349.11-34.58 349.61-34.25 349.61-33.7L349.61-33.7 349.61-23.65 356.11-23.65Q356.61-23.65 356.91-23.25 357.21-22.85 357.21-22.3L357.21-22.3Q357.21-21.75 356.91-21.35 356.61-20.95 356.11-20.95L356.11-20.95 349.61-20.95 349.61-7.35Q349.61-4.9 350.66-3.93 351.71-2.95 354.31-2.95L354.31-2.95 355.71-2.95Q356.41-2.95 356.78-2.53 357.16-2.1 357.16-1.5L357.16-1.5Q357.16-0.9 356.78-0.45 356.41 0 355.71 0L355.71 0ZM362.85 0L362.85 0Q362.2 0 361.73-0.4 361.25-0.8 361.25-1.3L361.25-1.3 361.25-36.95Q361.25-37.5 361.73-37.83 362.2-38.15 362.85-38.15L362.85-38.15Q363.55-38.15 364.03-37.83 364.5-37.5 364.5-36.95L364.5-36.95 364.5-20.15Q365.35-21.6 367-22.78 368.65-23.95 371.1-23.95L371.1-23.95Q373.5-23.95 375.53-22.68 377.55-21.4 378.75-19.3 379.95-17.2 379.95-14.6L379.95-14.6 379.95-1.3Q379.95-0.65 379.45-0.33 378.95 0 378.3 0L378.3 0Q377.75 0 377.23-0.33 376.7-0.65 376.7-1.3L376.7-1.3 376.7-14.6Q376.7-16.2 375.85-17.65 375-19.1 373.6-20.03 372.2-20.95 370.5-20.95L370.5-20.95Q369-20.95 367.63-20.18 366.25-19.4 365.38-18 364.5-16.6 364.5-14.6L364.5-14.6 364.5-1.3Q364.5-0.8 364.03-0.4 363.55 0 362.85 0ZM395.85 0.35L395.85 0.35Q392.7 0.35 390.28-0.85 387.85-2.05 386.48-4.17 385.1-6.3 385.1-9.15L385.1-9.15 385.1-14.75Q385.1-17.25 386.4-19.35 387.7-21.45 389.88-22.7 392.05-23.95 394.65-23.95L394.65-23.95Q397.15-23.95 399.28-22.78 401.4-21.6 402.7-19.55 404-17.5 404-14.85L404-14.85Q404-12.9 403.35-12.08 402.7-11.25 401.73-11.05 400.75-10.85 399.65-10.85L399.65-10.85 388.35-10.85 388.35-9Q388.35-6 390.5-4.25 392.65-2.5 395.95-2.5L395.95-2.5Q397.95-2.5 399.05-3 400.15-3.5 400.78-4 401.4-4.5 401.95-4.5L401.95-4.5Q402.35-4.5 402.68-4.23 403-3.95 403.18-3.6 403.35-3.25 403.35-2.95L403.35-2.95Q403.35-2.4 402.45-1.6 401.55-0.8 399.85-0.23 398.15 0.35 395.85 0.35ZM388.35-15.15L388.35-13.25 398.35-13.25Q399.85-13.25 400.35-13.58 400.85-13.9 400.85-14.95L400.85-14.95Q400.85-16.55 400.08-18 399.3-19.45 397.88-20.35 396.45-21.25 394.6-21.25L394.6-21.25Q392.9-21.25 391.48-20.43 390.05-19.6 389.2-18.23 388.35-16.85 388.35-15.15L388.35-15.15ZM428.89 0.35L428.89 0.35Q426.55 0.35 424.69-0.8 422.85-1.95 422.05-3.5L422.05-3.5 422.05-1.3Q422.05-0.8 421.6-0.4 421.14 0 420.5 0L420.5 0Q419.85 0 419.37-0.4 418.89-0.8 418.89-1.3L418.89-1.3 418.89-36.95Q418.89-37.5 419.37-37.83 419.85-38.15 420.5-38.15L420.5-38.15Q421.19-38.15 421.67-37.83 422.14-37.5 422.14-36.95L422.14-36.95 422.14-20.15Q423-21.6 424.67-22.78 426.35-23.95 428.8-23.95L428.8-23.95Q431.25-23.95 433.27-22.68 435.3-21.4 436.52-19.3 437.75-17.2 437.75-14.6L437.75-14.6 437.75-9.15Q437.75-6.7 436.52-4.5 435.3-2.3 433.3-0.98 431.3 0.35 428.89 0.35ZM428.3-2.65L428.3-2.65Q430-2.65 431.39-3.58 432.8-4.5 433.64-6 434.5-7.5 434.5-9.15L434.5-9.15 434.5-14.6Q434.5-16.2 433.64-17.65 432.8-19.1 431.39-20.03 430-20.95 428.25-20.95L428.25-20.95Q426.75-20.95 425.35-20.18 423.94-19.4 423.05-18 422.14-16.6 422.14-14.6L422.14-14.6 422.14-7.6Q422.14-6.85 422.97-5.68 423.8-4.5 425.19-3.58 426.6-2.65 428.3-2.65ZM451.64 0.35L451.64 0.35Q449.09 0.35 446.94-0.98 444.79-2.3 443.47-4.48 442.14-6.65 442.14-9.15L442.14-9.15 442.14-14.6Q442.14-17.1 443.44-19.23 444.74-21.35 446.89-22.65 449.04-23.95 451.64-23.95L451.64-23.95Q454.19-23.95 456.37-22.68 458.54-21.4 459.84-19.3 461.14-17.2 461.14-14.6L461.14-14.6 461.14-9.15Q461.14-6.7 459.84-4.5 458.54-2.3 456.37-0.98 454.19 0.35 451.64 0.35ZM451.64-2.65L451.64-2.65Q453.39-2.65 454.79-3.58 456.19-4.5 457.04-6 457.89-7.5 457.89-9.15L457.89-9.15 457.89-14.6Q457.89-16.2 457.07-17.65 456.24-19.1 454.82-20.03 453.39-20.95 451.64-20.95L451.64-20.95Q449.89-20.95 448.49-20.03 447.09-19.1 446.24-17.65 445.39-16.2 445.39-14.6L445.39-14.6 445.39-9.15Q445.39-7.5 446.24-6 447.09-4.5 448.52-3.58 449.94-2.65 451.64-2.65ZM466.04 0.35L466.04 0.35Q465.69 0.35 465.24 0.1 464.79-0.15 464.46-0.53 464.14-0.9 464.14-1.25L464.14-1.25Q464.14-1.65 464.34-1.95L464.34-1.95 470.99-11.95 464.49-21.65Q464.44-21.8 464.34-21.98 464.24-22.15 464.24-22.3L464.24-22.3Q464.24-22.7 464.56-23.08 464.89-23.45 465.34-23.7 465.79-23.95 466.24-23.95L466.24-23.95Q466.49-23.95 466.76-23.85 467.04-23.75 467.24-23.45L467.24-23.45 473.14-14.3 479.09-23.45Q479.24-23.7 479.51-23.83 479.79-23.95 480.04-23.95L480.04-23.95Q480.49-23.95 480.94-23.73 481.39-23.5 481.71-23.13 482.04-22.75 482.04-22.3L482.04-22.3Q482.04-22 481.79-21.65L481.79-21.65 475.24-11.95 481.94-1.95Q482.04-1.85 482.09-1.65 482.14-1.45 482.14-1.25L482.14-1.25Q482.14-0.9 481.84-0.53 481.54-0.15 481.09 0.1 480.64 0.35 480.19 0.35L480.19 0.35Q479.94 0.35 479.66 0.23 479.39 0.1 479.24-0.15L479.24-0.15 473.14-9.5 467.09-0.15Q466.89 0.1 466.62 0.23 466.34 0.35 466.04 0.35Z" opacity="1" transform="matrix(1,0,0,1,0,0)" fill="#35185a" class="slogan-text-1" data-fill-palette-color="secondary" id="text-1"></path></svg></g></svg></g></svg></g></svg></g><g></g></svg></g><defs></defs></svg><rect width="395.52" height="186.0331824545113" fill="none" stroke="none" visibility="hidden"></rect></g></svg></g></svg>